<?xml version="1.0" encoding="UTF-8" standalone="no"?>
<!-- Created with Inkscape (http://www.inkscape.org/) -->
<svg
   xmlns:dc="http://purl.org/dc/elements/1.1/"
   xmlns:cc="http://web.resource.org/cc/"
   xmlns:rdf="http://www.w3.org/1999/02/22-rdf-syntax-ns#"
   xmlns:svg="http://www.w3.org/2000/svg"
   xmlns="http://www.w3.org/2000/svg"
   xmlns:xlink="http://www.w3.org/1999/xlink"
   xmlns:sodipodi="http://sodipodi.sourceforge.net/DTD/sodipodi-0.dtd"
   xmlns:inkscape="http://www.inkscape.org/namespaces/inkscape"
   width="252"
   height="199"
   id="svg2"
   sodipodi:version="0.32"
   inkscape:version="0.45.1"
   version="1.0"
   sodipodi:docbase="/home/azatoth/img"
   sodipodi:docname="Question_book.svg"
   inkscape:output_extension="org.inkscape.output.svg.inkscape">
  <sodipodi:namedview
     id="base"
     pagecolor="#ffffff"
     bordercolor="#666666"
     borderopacity="1.0"
     gridtolerance="10000"
     guidetolerance="10"
     objecttolerance="10"
     inkscape:pageopacity="0.0"
     inkscape:pageshadow="2"
     inkscape:zoom="5.6568542"
     inkscape:cx="137.1812"
     inkscape:cy="119.32363"
     inkscape:document-units="px"
     inkscape:current-layer="layer1"
     width="252px"
     height="199px"
     inkscape:window-width="1600"
     inkscape:window-height="1103"
     inkscape:window-x="0"
     inkscape:window-y="27" />
  <defs
     id="defs4">
    <linearGradient
       id="linearGradient3212">
      <stop
         offset="0"
         style="stop-color:#fffbf0;stop-opacity:1;"
         id="stop3214" />
      <stop
         offset="1"
         style="stop-color:#fff3b9;stop-opacity:1;"
         id="stop3216" />
    </linearGradient>
    <linearGradient
       x1="141.47234"
       x2="380.66001"
       y1="457.53752"
       inkscape:collect="always"
       gradientUnits="userSpaceOnUse"
       y2="457.53752"
       xlink:href="#linearGradient3212"
       id="linearGradient3218" />
  </defs>
  <metadata
     id="metadata7">
    <rdf:RDF>
      <cc:Work
         rdf:about="">
        <dc:format>image/svg+xml</dc:format>
        <dc:type
           rdf:resource="http://purl.org/dc/dcmitype/StillImage" />
      </cc:Work>
    </rdf:RDF>
  </metadata>
  <g
     inkscape:label="Layer 1"
     transform="translate(-135.06609,-358.03129)"
     id="layer1"
     inkscape:groupmode="layer">
    <path
       style="opacity:1;fill:url(#linearGradient3218);fill-opacity:1;fill-rule:evenodd;stroke:#2b2b2b;stroke-width:0;stroke-linecap:butt;stroke-linejoin:round;stroke-miterlimit:4;stroke-dasharray:none;stroke-dashoffset:0;stroke-opacity:1"
       d="M 294.20181,365.95807 C 296.83815,365.95814 301.03113,370.52473 337.88931,408.17682 L 368.01431,438.92682 L 368.01431,443.36432 C 368.0143,447.35975 368.59496,448.48322 373.98306,454.61432 C 379.89309,461.33934 379.96589,461.49859 379.98306,467.55182 C 379.99359,471.2688 379.52256,474.06508 378.76431,474.67682 C 378.0768,475.23148 372.78931,476.4573 367.01431,477.39557 C 361.2393,478.33385 344.26356,481.54615 329.29556,484.52057 C 314.32756,487.49498 301.83423,489.92682 301.54556,489.92682 C 301.25688,489.92682 298.5536,492.17147 295.54556,494.89557 C 287.23206,502.42431 284.92126,503.36674 274.45181,503.52057 L 265.35806,503.64557 L 251.04556,511.36432 C 234.25911,520.4104 220.15698,529.03026 203.51431,540.39557 C 188.54312,550.61942 189.43359,550.15108 188.23306,548.67682 C 187.67814,547.99538 185.17753,542.47682 182.67056,536.42682 C 173.03423,513.17169 164.88135,493.39859 153.54556,465.67682 L 141.79556,436.89557 L 143.38931,433.52057 C 144.27471,431.65473 145.01431,429.03762 145.01431,427.70807 C 145.01431,426.37852 145.70376,422.98022 146.54556,420.14557 C 147.68695,416.30208 149.0218,414.26911 151.79556,412.20807 C 153.84126,410.68801 159.78931,405.46801 165.01431,400.58307 C 181.76296,384.92449 192.90463,378.92682 205.32681,378.92682 C 210.7596,378.92682 212.28441,379.33871 215.60806,381.77057 C 217.75308,383.34005 220.37281,385.59005 221.42056,386.77057 C 224.16593,389.86385 225.4951,389.46599 228.32681,384.67682 C 231.86642,378.6904 237.65076,373.40712 243.48306,370.83307 C 247.79916,368.92819 251.17237,368.52159 268.48306,367.80182 C 279.48894,367.34419 290.17725,366.67588 292.23306,366.33307 C 293.05663,366.19574 293.59342,365.95805 294.20181,365.95807 z "
       id="path2239" />
    <path
       style="fill:#845507;fill-opacity:1"
       d="M 294.20181,365.95807 C 293.59342,365.95805 293.05663,366.19573 292.23306,366.33307 C 290.17725,366.67588 279.48895,367.34419 268.48306,367.80182 C 251.17237,368.52159 247.79916,368.92819 243.48306,370.83307 C 237.65076,373.40712 231.86642,378.6904 228.32681,384.67682 C 225.4951,389.46599 224.16593,389.8951 221.42056,386.80182 C 220.37281,385.6213 217.75308,383.3713 215.60806,381.80182 C 212.28441,379.36996 210.7596,378.92682 205.32681,378.92682 C 192.90463,378.92682 181.76296,384.92449 165.01431,400.58307 C 159.78931,405.46801 153.84126,410.71926 151.79556,412.23932 C 149.0218,414.30036 147.68695,416.30208 146.54556,420.14557 C 145.70376,422.98022 145.01431,426.37852 145.01431,427.70807 C 145.01431,429.03762 144.27471,431.65473 143.38931,433.52057 L 141.79556,436.92682 L 153.54556,465.67682 C 164.88135,493.39859 173.03423,513.17169 182.67056,536.42682 C 185.17753,542.47682 187.67814,547.99538 188.23306,548.67682 C 189.43359,550.15108 188.54312,550.61943 203.51431,540.39557 C 220.15698,529.03026 234.25911,520.41041 251.04556,511.36432 L 265.35806,503.64557 L 274.45181,503.52057 C 284.92126,503.36674 287.23206,502.42431 295.54556,494.89557 C 298.5536,492.17147 301.25688,489.92682 301.54556,489.92682 C 301.83423,489.92682 314.32756,487.49498 329.29556,484.52057 C 344.26356,481.54615 361.2393,478.3651 367.01431,477.42682 C 372.78931,476.48855 378.0768,475.26273 378.76431,474.70807 C 379.52256,474.09633 379.99359,471.2688 379.98306,467.55182 C 379.96589,461.49859 379.89309,461.33934 373.98306,454.61432 C 368.59496,448.48322 368.0143,447.391 368.01431,443.39557 L 368.01431,438.95807 L 337.88931,408.17682 C 301.03113,370.52473 296.83815,365.95814 294.20181,365.95807 z M 292.17056,370.48932 C 293.45449,369.93316 301.30556,377.33599 326.17056,402.45807 C 343.95238,420.42373 358.65502,435.71325 358.82681,436.45807 C 359.21345,438.13444 357.41411,438.44576 334.92056,440.42682 C 317.8771,441.92787 305.99872,444.34297 299.73306,447.58307 C 295.31276,449.8689 287.28845,457.64756 284.79556,462.08307 C 283.60927,464.19379 282.16546,465.92682 281.57681,465.92682 C 280.31046,465.92682 270.70561,452.82877 245.01431,416.02057 C 241.43931,410.89863 236.37681,403.76267 233.76431,400.17682 C 231.15181,396.59097 229.01431,393.14272 229.01431,392.52057 C 229.01431,391.07777 233.49508,384.27481 236.88931,380.58307 C 242.89504,374.05092 247.70872,372.84033 271.01431,371.95807 C 281.73931,371.55206 291.25238,370.88705 292.17056,370.48932 z M 204.88931,383.08307 C 206.99765,383.04586 208.9217,383.34068 210.54556,383.95807 C 215.14797,385.70791 225.94145,397.00852 233.42056,407.92682 C 237.37647,413.70182 245.50605,425.40182 251.48306,433.92682 C 257.46007,442.45182 264.78168,452.9244 267.76431,457.20807 C 270.84492,461.63242 272.95789,465.62783 272.63931,466.45807 C 272.23165,467.5204 270.38139,467.92682 265.92056,467.92682 C 250.52395,467.92682 234.92324,475.55785 215.23306,492.70807 C 211.22908,496.19555 205.0082,501.27384 201.42056,503.98932 C 197.83291,506.7048 194.5258,508.92682 194.07681,508.92682 C 193.12059,508.92682 192.813,508.22484 171.35806,457.58307 C 162.30407,436.21224 155.0337,417.95478 155.20181,417.02057 C 155.58601,414.88547 175.19483,396.83266 183.20181,391.23932 C 190.50245,386.13939 198.56428,383.19469 204.88931,383.08307 z M 150.92056,422.95807 C 151.21167,422.91665 151.54486,423.09553 151.92056,423.48932 C 152.4103,424.00265 161.34501,444.67682 171.76431,469.42682 L 190.70181,514.42682 L 190.23306,521.17682 C 189.76316,527.95742 188.87941,529.42599 187.17056,526.17682 C 186.24193,524.41113 174.36291,496.4412 157.79556,456.98932 C 149.30827,436.77854 148.80618,435.24009 149.20181,429.77057 C 149.53026,425.22974 150.04724,423.08234 150.92056,422.95807 z M 356.23306,444.36432 C 363.56012,444.22807 364.01431,445.49848 364.01431,450.02057 C 364.01431,452.12616 364.50111,456.1592 365.10806,458.98932 C 365.89992,462.68162 365.91616,464.43122 365.13931,465.20807 C 364.50469,465.84269 356.47424,466.62413 345.76431,467.08307 C 313.57157,468.46259 309.37544,469.5231 300.20181,478.64557 C 297.27844,481.55264 294.5641,483.92682 294.17056,483.92682 C 293.77701,483.92682 292.93526,482.55912 292.29556,480.86432 C 291.2628,478.12823 290.71799,477.81513 287.60806,478.08307 C 285.68169,478.24904 283.82287,478.11037 283.48306,477.77057 C 282.41173,476.69923 289.62846,463.60084 293.45181,459.67682 C 301.78274,451.12652 316.88815,446.90568 346.35806,444.89557 C 350.56621,444.60854 353.79071,444.40974 356.23306,444.36432 z M 267.85806,472.73932 C 271.89445,472.72188 275.60995,473.14746 276.13931,473.67682 C 276.75596,474.29347 276.52293,476.12488 275.45181,478.80182 C 274.53231,481.09988 273.26057,485.56188 272.63931,488.70807 L 271.51431,494.42682 L 263.51431,495.05182 C 254.70309,495.7407 248.48434,497.80624 238.54556,503.36432 C 231.72912,507.17629 212.96716,520.95009 202.51431,529.80182 C 194.43666,536.6422 193.54841,536.54815 194.35806,528.80182 C 194.71141,525.42114 195.01431,520.92533 195.01431,518.83307 C 195.01431,515.20342 195.43852,514.72436 204.26431,508.08307 C 209.35181,504.2548 218.01431,497.44707 223.51431,492.95807 C 240.7994,478.85029 254.05517,472.79894 267.85806,472.73932 z "
       id="path2176" />
    <path
       style="fill:#cc3602;fill-opacity:1;fill-rule:evenodd;stroke:#2b2b2b;stroke-width:0;stroke-linecap:butt;stroke-linejoin:round;stroke-miterlimit:4;stroke-dashoffset:0;stroke-opacity:1"
       id="path3267"
       d="M 284.82948,380.89736 C 277.83858,380.89736 275.86281,381.31371 270.07948,384.05361 C 258.68939,389.44976 250.26698,398.9837 250.26698,406.42861 C 250.26698,413.36319 255.54216,418.39737 262.79823,418.39736 C 270.68516,418.39736 275.92071,411.99164 271.17323,408.14736 C 269.16385,406.52027 267.86908,406.30969 262.67323,406.86611 C 255.78288,407.60401 255.00339,407.00883 256.39198,401.83486 C 257.57171,397.43911 264.69159,390.80255 272.23573,387.08486 C 284.51776,381.03239 295.26697,383.50239 295.26698,392.36611 C 295.26698,394.35352 293.87042,399.9684 292.17323,404.83486 C 288.66601,414.89139 288.81051,418.51555 292.89198,423.36611 C 294.29399,425.0323 295.76379,426.39736 296.17323,426.39736 C 296.58267,426.39736 296.93491,424.48486 296.95448,422.14736 C 296.97673,419.48936 298.37105,414.84573 300.64198,409.74111 C 304.7943,400.40746 305.22431,395.17622 302.32948,389.61611 C 301.26706,387.57552 298.7012,384.77236 296.64198,383.39736 C 293.42045,381.24624 291.77701,380.89736 284.82948,380.89736 z M 306.86073,427.39736 C 303.05269,427.39736 297.73678,434.55468 299.92323,436.74111 C 301.25956,438.07745 303.162,437.34607 306.17323,434.33486 C 309.96831,430.53978 310.29083,427.39736 306.86073,427.39736 z " />
    <path
       style="fill:#7e4a08;fill-opacity:0.27222222;fill-rule:nonzero;stroke:none;stroke-width:1px;stroke-linecap:butt;stroke-linejoin:miter;stroke-opacity:1"
       d="M 211.81609,385.84378 C 210.81058,387.81572 213.97433,386.92231 211.81609,385.84378 z M 212.37859,387.37503 C 207.9778,385.51269 202.27383,389.03468 198.37209,387.13355 C 195.89136,392.0046 188.21909,391.61341 184.46058,395.69535 C 182.60454,398.01114 177.93698,397.75057 177.74178,402.26874 C 176.2715,409.11622 167.55167,407.8948 164.95251,414.38733 C 161.27836,416.39673 158.26207,422.27359 163.77665,424.06507 C 166.13771,419.0144 172.95449,417.5817 176.1518,412.7699 C 178.83289,407.83856 183.03509,403.14481 187.68619,399.77549 C 190.00472,397.52248 192.29731,398.97642 193.92515,400.53361 C 194.36907,396.21299 201.44592,391.57005 203.40984,397.34379 C 204.40697,390.26507 215.03957,395.39681 216.30981,393.70601 C 215.45451,391.35219 214.03553,389.23784 212.37859,387.37503 z M 216.69109,395.68753 L 216.67591,396.12368 L 216.69109,395.68753 L 216.69109,395.68753 z M 160.90984,417.15628 C 160.55428,414.69243 158.38256,415.46625 160.90984,417.15628 z M 227.84734,409.15628 C 216.76345,408.95609 205.37855,411.19933 195.879,417.11517 C 188.61147,418.19429 189.42294,427.78865 183.4864,430.63239 C 179.87772,434.92393 175.10079,437.4836 170.34596,438.86149 C 168.25398,441.56433 171.57658,446.81393 172.3473,441.21184 C 176.94273,438.10864 181.79701,435.68316 184.94886,430.96332 C 190.46451,429.1085 189.42694,421.63905 196.13796,422.15682 C 202.23817,421.75586 205.89364,416.4217 211.11618,413.99377 C 217.28606,410.50324 225.69084,408.38634 231.89663,412.921 C 236.97972,414.8962 233.55147,406.27619 229.62872,409.26976 L 228.7037,409.30447 L 227.84734,409.15628 L 227.84734,409.15628 z M 202.87859,419.75003 C 198.18682,422.56274 202.59421,422.86274 202.87859,419.75003 z M 170.84734,445.03128 C 166.98081,441.3262 169.79085,450.43843 171.14982,445.73008 L 170.84734,445.03128 L 170.84734,445.03128 z M 192.94109,418.50003 C 196.16636,416.48694 192.55633,416.27508 192.05992,418.42236 L 192.94109,418.50003 L 192.94109,418.50003 z M 236.90984,420.96878 C 225.99995,420.7044 214.93097,422.91162 205.34642,428.21047 C 198.43947,430.64925 195.81614,438.11401 191.20943,443.13869 C 186.89819,445.68429 182.92564,448.77843 178.33699,450.82413 C 175.96367,451.68658 171.52069,455.84397 176.3595,456.73009 C 177.54599,449.54819 187.87982,451.02542 190.98567,444.84711 C 194.99131,443.70052 200.10293,442.51366 200.16186,437.59813 C 203.41061,433.96056 209.76592,432.96441 212.29729,432.01573 C 220.50223,426.19718 230.80112,421.25784 241.09283,423.59377 C 241.71493,427.19495 245.8251,425.93179 242.36597,423.30973 C 241.01143,421.78041 238.96291,420.85212 236.90984,420.96878 z M 174.19109,455.78128 C 171.61176,459.04278 175.98566,459.71594 174.19109,455.78128 z M 201.50359,430.28128 C 205.041,426.74643 196.05385,432.35281 201.44764,430.3039 L 201.50359,430.28128 z M 242.97234,431.09378 C 228.2026,431.47359 213.29682,436.91158 202.45819,447.05779 C 199.38315,451.65538 193.86029,452.92086 190.47779,457.06844 C 188.2536,461.66337 180.24293,461.08643 180.0825,467.07837 C 182.90579,472.82292 183.64325,461.68334 187.44012,463.77715 C 192.87207,461.13356 194.16324,451.94166 201.68194,453.71728 C 206.89159,450.51023 209.15618,443.86554 215.7982,442.50207 C 219.36839,440.2842 211.24433,446.52255 216.30832,443.30691 C 225.30921,437.19139 235.94703,431.386 247.21598,433.29189 C 248.83873,435.96464 252.88535,437.06298 250.36865,432.87369 C 248.58547,430.71531 245.45479,431.12713 242.97234,431.09378 z M 181.03484,469.34378 C 179.48033,469.31307 181.45467,471.25863 181.03484,469.34379 L 181.03484,469.34378 z M 180.44109,469.46878 C 182.35306,466.77329 177.91373,470.03925 180.44109,469.46878 z M 205.94109,443.87503 C 209.12058,441.85807 209.01522,441.75042 205.94109,443.87503 z M 248.22234,443.37503 C 236.29825,443.77921 224.24921,447.33116 214.73269,454.68795 C 208.7004,456.95383 206.61968,465.12658 200.0389,466.09601 C 197.61463,471.00946 193.56176,474.14873 188.63828,476.07598 C 185.54306,476.46303 181.5064,483.15733 186.83977,481.51632 C 191.68566,477.5477 196.41036,474.23319 201.36613,470.07756 C 208.67532,469.21206 210.77797,461.81643 215.82699,457.75909 C 218.12628,456.35246 223.58945,454.02447 219.08048,457.78504 C 222.98513,455.75734 227.01601,452.52241 231.46071,450.96328 C 239.0555,447.76398 247.57556,446.34962 255.72757,447.95469 C 261.43012,451.31544 258.90268,441.16338 254.13484,443.62896 C 252.17417,443.39219 250.19562,443.33186 248.22234,443.37503 z M 184.37859,482.31253 C 182.8982,482.62136 185.70498,483.46047 184.37859,482.31253 z M 183.90984,482.34378 C 184.01787,479.80636 181.47651,482.97706 183.90984,482.34378 z M 183.47234,481.15628 L 183.65984,481.06253 L 183.47234,481.15628 z M 256.40985,454.15628 C 243.68304,454.11803 230.77087,458.12154 220.88304,466.26513 C 219.54916,466.3575 223.89175,462.75255 220.80023,465.14837 C 215.53745,469.03338 210.57021,473.45679 205.67496,477.67458 C 200.90626,482.89975 195.5986,487.54756 190.14212,491.98449 C 191.95866,496.28883 199.33342,489.89572 201.38332,487.05886 C 204.50617,483.12001 208.13135,479.61811 212.59469,477.2193 C 217.25811,474.71214 219.89315,469.8618 224.54778,467.33474 C 227.45686,465.488 227.53205,465.53151 226.56807,467.23132 C 236.96777,460.0558 249.93577,455.39377 262.6684,457.66144 C 266.35354,460.63099 266.85451,454.99517 262.93271,454.98148 C 260.83343,454.27062 258.59137,454.32985 256.40985,454.15628 z "
       id="path3292" />
    <path
       style="fill:none;fill-opacity:0.75;fill-rule:evenodd;stroke:#000000;stroke-width:1px;stroke-linecap:butt;stroke-linejoin:miter;stroke-opacity:1"
       id="path3335"
       d="M56.1051103571 115.085548693C56.1051103571 115.085548693 37.8742660823 124.834701512 28.1596066525 129.601284793" />
    <path
       style="fill:#000000;fill-opacity:1;fill-rule:nonzero;stroke:none;stroke-width:1px;stroke-linecap:butt;stroke-linejoin:miter;stroke-opacity:1"
       id="path3571"
       d="M57.8530733809 145.356873026C58.1639697721 145.345536235 58.3357869959 144.356820009 59.1303485527 143.026673315C60.4364970561 142.148694951 60.5654089353 140.408664953 61.2705982355 139.109905984C64.4335153774 133.284732941 59.8498458068 143.96706262 62.7566985244 136.879607544C64.422247859 135.18291215 65.9830929296 130.808606455 67.004610939 130.078895061C68.0626215393 128.573403599 67.7419584942 127.670663716 68.6510092406 126.682260485C69.9804983683 130.362610558 69.8158899138 128.097508385 68.0567786267 132.16583535C67.0382044848 134.256430418 66.0336917523 136.142854226 65.4438185105 138.25699292C64.6688097818 140.039040683 63.9556480269 141.706919345 63.6191600899 143.393935083C63.6254252859 143.724482484 63.6316897015 144.055020636 63.637954117 144.385568789C63.6603268066 145.566006691 62.7424509987 143.397176127 62.723322911 142.21351408C62.723322911 142.21351408 62.723322911 142.21351408 62.723322911 142.21351408C62.7180185293 141.885251535 62.712713367 141.556989742 62.7074089852 141.228727197C62.9019664649 139.894932713 63.6693136594 137.558623477 64.5183441182 136.059223489C64.7521685405 134.781379857 66.3225061213 130.862766531 67.0821455887 129.883023463C68.5702914041 126.496926791 68.4679781499 126.069684665 69.6951422727 129.127170398C69.3390488121 130.166634812 68.5434124054 130.528634304 67.9132806954 132.207199489C66.3743279536 134.422248287 65.1240239658 136.826149659 63.6362963026 138.968465056C62.5592258201 142.006879025 61.322260541 143.204661655 60.150121738 145.455594508C59.4183551125 146.122504113 59.0358357032 147.924369332 58.7893346697 147.61469297C58.3079868189 147.009968213 57.082559 145.384975 57.8530733809 145.356873026C57.8530733809 145.356873026 57.8530733809 145.356873026 57.8530733809 145.356873026M70.8152072088 133.115418699C71.1493931078 133.128821739 71.334081303 132.153778006 72.1881641282 130.886859188C73.5921573046 130.112818642 73.6957443863 128.347526073 74.4338599393 127.084676342C77.7444580084 121.420563518 72.9099713825 131.826028007 76.0238950956 124.970850446C77.808090606 123.407243893 79.454861566 119.128628259 80.5504394305 118.48728345C81.6851555915 117.07331537 81.3412445386 116.142836478 82.3162012856 115.233070831C83.742078114 119.028428582 83.5655355788 116.749086927 81.6788890689 120.665241679C80.5864685018 122.667724822 79.5186101153 124.479164925 78.9024146327 126.562935227C78.0928222598 128.305083284 77.3082523195 129.893966554 76.9477945089 131.554094592C76.9545060091 131.885142626 76.9612166732 132.216181348 76.9679273372 132.54723007C76.9918937557 133.729455704 76.0086326408 131.487280554 75.988141955 130.302090041C75.988141955 130.302090041 75.988141955 130.302090041 75.988141955 130.302090041C75.9824597131 129.973403639 75.9767766352 129.644717927 75.9710943933 129.316031526C76.179511265 127.997783522 77.0015207911 125.722790602 77.9110323267 124.291233984C78.1615133397 123.032074531 79.8188821475 119.21214933 80.633595327 118.298119C82.2296314218 115.040754628 82.1459784956 114.634051878 83.4354339852 117.7676277C83.0612650709 118.785012604 82.200803701 119.070136969 81.5249875658 120.694192506C79.8744610524 122.776113942 78.5598580579 125.106558137 76.9661514276 127.129993867C75.8123553321 130.0823425 74.4879344286 131.18206273 73.2610668617 133.373308616C72.4951330517 134.002955628 72.0865712424 135.777034268 71.8216046111 135.447742389C71.3041985916 134.804713989 69.9869729534 133.082206371 70.8152072088 133.115418699C70.8152072088 133.115418699 70.8152072088 133.115418699 70.8152072088 133.115418699M84.6123538884 121.825325425C84.9635032041 121.859449601 85.1471672795 120.881974139 86.0645174475 119.694598682C87.5725133209 119.051316341 87.6837737561 117.295671156 88.4765662189 116.101564398C92.0324013262 110.74577776 86.8513194908 120.708276043 90.172015529 114.12679341C92.0746860852 112.720006776 93.8642043934 108.631772375 95.0429751643 108.111143896C96.2638562055 106.822204601 95.8938302036 105.853831843 96.9428204703 105.05149188C98.4769715176 109.003959976 98.2870231926 106.705165969 96.2571138333 110.413440432C95.0817401097 112.295555133 93.93736349 113.999714921 93.2689380347 116.012478937C92.3907229783 117.661334931 91.5416572858 119.162796696 91.1572641749 120.791242688C91.1644213354 121.122880621 91.1715776044 121.45450917 91.1787338734 121.786147719C91.204291722 122.970479855 90.1557396091 120.641882041 90.1338882904 119.454890522C90.1338882904 119.454890522 90.1338882904 119.454890522 90.1338882904 119.454890522C90.1278287335 119.125704686 90.121768285 118.796519466 90.1157087281 118.46733363C90.3379650014 117.167404199 91.2069205945 114.953287895 92.1935241635 113.626537363C92.4652364527 112.396241683 94.2558669446 108.755403081 95.1324455191 107.931141984C96.849676908 104.84963697 96.7383711467 104.397658117 98.1527217301 107.718985897C97.7423112688 108.681889707 96.8186601489 108.875842926 96.0915257913 110.425433611C94.3156662439 112.325491659 92.8763727766 114.4853968 91.1768400389 116.368755424C89.946428996 119.219692407 88.5346463493 120.20398691 87.2168969048 122.280970844C86.3942255099 122.839284083 85.955398931 124.575312105 85.6708045374 124.221343068C85.1150709658 123.530127053 83.742078114 121.740758582 84.6123538884 121.825325425C84.6123538884 121.825325425 84.6123538884 121.825325425 84.6123538884 121.825325425M99.4436366667 111.948049767C99.8287978789 112.033303255 100.022432455 111.062656187 101.026975541 110.016435486C102.678304423 109.605191897 102.800140015 107.866666609 103.668286351 106.794548628C107.562098873 101.98590642 101.872522153 111.100451491 105.527666633 105.102395279C107.621967256 104.029896474 109.608591763 100.311407432 110.909798153 100.045664666C112.25748869 99.0207165935 111.849493085 97.9736896895 113.019899892 97.4346081413C114.73162295 101.772092369 114.519688846 99.4256282384 112.254825381 102.624469261C110.943406725 104.211607893 109.682964463 105.694325549 108.943786669 107.572141436C107.972613201 109.043694969 107.035253732 110.379036424 106.612145944 111.939946847C106.620023948 112.27284225 106.62790097 112.605728113 106.635777992 112.938623975C106.663909935 114.127446472 105.509751462 111.614624328 105.485699358 110.423793662C105.485699358 110.423793662 105.485699358 110.423793662 105.485699358 110.423793662C105.479029504 110.093543199 105.472358669 109.763293194 105.465688816 109.43304273C105.710329934 108.172162397 106.663506214 106.096650577 107.754541038 104.969085016C108.055013871 103.793645214 110.040935207 100.519727368 111.008561543 99.8850089376C112.904156949 97.1748210271 112.810346197 96.7538533792 114.374440268 100.430442117C113.920577855 101.290257757 112.881368497 101.227799461 112.070071168 102.594905861C110.088662791 104.049287734 108.504396919 105.936138051 106.633693418 107.520898945C105.279359844 110.155660072 103.731886921 110.905908062 102.288887138 112.780126894C101.388021917 113.211853815 100.90892923 114.883010428 100.603545701 114.496750343C100.007216741 113.742478906 98.489067037 111.736765886 99.4436366667 111.948049767C99.4436366667 111.948049767 99.4436366667 111.948049767 99.4436366667 111.948049767M115.811851084 105.020448672C116.242003424 105.218183695 116.481485134 104.352753313 117.590829386 103.600979133C119.414436786 103.673764603 119.565824675 102.067146974 120.538444093 101.336658223C124.900839593 98.0602924506 118.563301127 104.757375242 122.59816484 100.438316631C124.910034489 100.327838819 127.034272429 97.8313854065 128.372233057 98.3823565132C129.757990835 98.2032985048 129.33304066 96.9245073625 130.462148843 97.2543571358C132.113472555 102.862655725 131.975418696 100.187424859 129.723157117 101.878571051C128.419035301 102.592712632 127.097431064 103.243046513 126.312362696 104.673602928C125.280895603 105.557521747 124.261175017 106.460769454 123.794731929 107.799669526C123.803416809 108.136698624 123.812100607 108.473717666 123.820784405 108.810746708C123.851797661 110.014330414 122.578388529 106.942316312 122.551837742 105.740437266C122.551837742 105.740437266 122.551837742 105.740437266 122.551837742 105.740437266C122.544474982 105.407122993 122.537111139 105.073808727 122.52974838 104.740494454C122.799804345 103.591990485 123.868719549 101.963098206 125.039385906 101.416694478C125.361789397 100.401307626 127.478827966 98.3110695864 128.473786145 98.283690513C130.422925064 96.7632900764 130.290286904 96.3864268833 131.726876141 101.277310498C131.310012558 101.784767022 130.346214095 100.898984149 129.539430891 101.726018793C127.569047233 101.861398787 125.880789931 102.788750284 123.818486326 103.391927874C122.325439987 105.316051948 120.600538483 105.406365246 118.994278148 106.788380405C117.991489312 106.912824419 117.458873233 108.429877919 117.114715499 107.940769994C116.442671317 106.985665378 114.745777069 104.530394618 115.811851084 105.020448672C115.811851084 105.020448672 115.811851084 105.020448672 115.811851084 105.020448672" />
  </g>
</svg>
